<svg width="17" height="17" viewBox="0 0 17 17" fill="none" xmlns="http://www.w3.org/2000/svg">
<path fill-rule="evenodd" clip-rule="evenodd" d="M14.535 2.3982C12.9907 0.852536 10.9368 0.00087061 8.7486 0C4.23991 0 0.570397 3.66814 0.568587 8.17687C0.567995 9.6181 0.944655 11.025 1.66049 12.265L0.5 16.5025L4.83633 15.3654C6.03112 16.0168 7.37627 16.3602 8.74534 16.3607H8.74872C13.257 16.3607 16.9268 12.6921 16.9286 8.18337C16.9295 5.99838 16.0794 3.94386 14.535 2.3982ZM8.7487 14.9797H8.74591C7.52593 14.9792 6.32937 14.6515 5.28547 14.0323L5.03719 13.885L2.46395 14.5598L3.15079 12.0517L2.9891 11.7946C2.30853 10.7124 1.94908 9.46163 1.94962 8.17741C1.9511 4.42996 5.00108 1.3811 8.75133 1.3811C10.5673 1.3818 12.2743 2.08973 13.558 3.37441C14.8417 4.65909 15.5482 6.36677 15.5475 8.18286C15.546 11.9306 12.4961 14.9797 8.7487 14.9797Z" fill="white"/>
<path d="M8.7487 14.9797H8.74591C7.52593 14.9792 6.32937 14.6515 5.28547 14.0323L5.03719 13.885L2.46395 14.5598L3.15079 12.0517L2.9891 11.7946C2.30853 10.7124 1.94908 9.46163 1.94962 8.17741C1.9511 4.42996 5.00108 1.3811 8.75133 1.3811C10.5673 1.3818 12.2743 2.08973 13.558 3.37441C14.8417 4.65909 15.5482 6.36677 15.5475 8.18286C15.546 11.9306 12.4961 14.9797 8.7487 14.9797Z" fill="white"/>
<path fill-rule="evenodd" clip-rule="evenodd" d="M6.00473 12.1378C6.06229 12.1726 6.18056 12.1725 6.4518 12.1723C7.60285 12.1713 8.59712 12.1677 9.30432 12.1677C12.6048 12.1677 12.518 8.69323 10.9749 8.25974C11.2009 7.8593 12.2307 7.10711 11.5938 5.55232C10.964 4.0149 8.25555 4.36378 6.40317 4.36469C5.71778 4.36478 5.82026 4.87123 5.82378 5.65865C5.82941 6.90586 5.82479 10.2818 5.82396 11.7412C5.82378 12.037 5.91305 12.0825 6.00473 12.1378ZM7.43279 10.8645C7.74443 10.8645 8.47952 10.8645 9.1096 10.8635C9.82315 10.8624 10.4585 10.5287 10.4427 9.81832C10.431 9.14917 9.98583 8.92957 9.36796 8.86826C8.77943 8.8739 8.10627 8.8739 7.43277 8.8739V10.8645H7.43279ZM7.43279 7.53002C8.67424 7.51301 9.15316 7.58006 9.83096 7.41029C10.2967 7.14594 10.5001 6.1655 9.83358 5.8325C9.37052 5.60114 8.00213 5.6803 7.43279 5.70401V7.53004V7.53002Z" fill="#2A172D"/>
</svg>
